<svg width="61" height="61" viewBox="0 0 61 61" fill="none" xmlns="http://www.w3.org/2000/svg">
<path d="M5.68662 5.81648C4.68788 5.48355 3.60833 6.02333 3.2754 7.0221C2.94249 8.02087 3.48226 9.10042 4.48101 9.43333L5.15432 9.65778C6.87353 10.2308 8.01017 10.6128 8.84752 11.0023C9.64042 11.3711 9.98324 11.668 10.2029 11.9728C10.4225 12.2775 10.5958 12.6966 10.6949 13.5654C10.7997 14.483 10.8026 15.6821 10.8026 17.4943V24.2852C10.8025 27.7611 10.8025 30.5628 11.0987 32.7664C11.4063 35.0542 12.0644 36.9805 13.5942 38.5103C15.1241 40.0401 17.0503 40.6982 19.3381 41.0057C21.5417 41.3021 24.3434 41.3021 27.8193 41.3021H45.7505C46.8032 41.3021 47.6567 40.4486 47.6567 39.3958C47.6567 38.3428 46.8032 37.4896 45.7505 37.4896H27.9588C24.3105 37.4896 21.766 37.4855 19.8461 37.2273C17.9811 36.9767 16.9935 36.5179 16.2901 35.8146C15.6923 35.2168 15.2713 34.4137 15.0044 33.0417H40.7231C43.1618 33.0417 44.381 33.0417 45.3359 32.4118C46.2908 31.7823 46.771 30.6617 47.7317 28.4202L48.8208 25.8785C50.8783 21.0778 51.9072 18.6774 50.7771 16.9636C49.6471 15.2499 47.0356 15.2499 41.8124 15.2499H14.6025C14.5875 14.4679 14.5547 13.7623 14.4828 13.133C14.3421 11.9008 14.0356 10.7701 13.2957 9.74354C12.5559 8.71703 11.5801 8.06868 10.4556 7.54553C9.39769 7.05339 8.05233 6.60499 6.46028 6.07436L5.68662 5.81648Z" fill="white"/>
<path d="M19.0625 45.75C21.1681 45.75 22.875 47.457 22.875 49.5625C22.875 51.668 21.1681 53.375 19.0625 53.375C16.9569 53.375 15.25 51.668 15.25 49.5625C15.25 47.457 16.9569 45.75 19.0625 45.75Z" fill="white"/>
<path d="M41.9375 45.7502C44.043 45.7502 45.75 47.457 45.75 49.5627C45.75 51.6683 44.043 53.3752 41.9375 53.3752C39.832 53.3752 38.125 51.6683 38.125 49.5627C38.125 47.457 39.832 45.7502 41.9375 45.7502Z" fill="white"/>
<path d="M46.8523 15.1193C46.2898 15.1193 45.7884 15.0227 45.348 14.8295C44.9105 14.6364 44.5625 14.3679 44.304 14.0241C44.0483 13.6776 43.9091 13.2756 43.8864 12.8182H44.9602C44.983 13.0994 45.0795 13.3423 45.25 13.5469C45.4205 13.7486 45.6435 13.9048 45.919 14.0156C46.1946 14.1264 46.5 14.1818 46.8352 14.1818C47.2102 14.1818 47.5426 14.1165 47.8324 13.9858C48.1222 13.8551 48.3494 13.6733 48.5142 13.4403C48.679 13.2074 48.7614 12.9375 48.7614 12.6307C48.7614 12.3097 48.6818 12.027 48.5227 11.7827C48.3636 11.5355 48.1307 11.3423 47.8239 11.2031C47.517 11.0639 47.142 10.9943 46.6989 10.9943H46V10.0568H46.6989C47.0455 10.0568 47.3494 9.99432 47.6108 9.86932C47.875 9.74432 48.081 9.56818 48.2287 9.34091C48.3793 9.11364 48.4545 8.84659 48.4545 8.53977C48.4545 8.24432 48.3892 7.98722 48.2585 7.76847C48.1278 7.54972 47.9432 7.37926 47.7045 7.2571C47.4688 7.13494 47.1903 7.07386 46.8693 7.07386C46.5682 7.07386 46.2841 7.12926 46.017 7.24006C45.7528 7.34801 45.5369 7.50568 45.3693 7.71307C45.2017 7.91761 45.1108 8.16477 45.0966 8.45455H44.0739C44.0909 7.99716 44.2287 7.59659 44.4872 7.25284C44.7457 6.90625 45.0838 6.63636 45.5014 6.44318C45.9219 6.25 46.3835 6.15341 46.8864 6.15341C47.4261 6.15341 47.8892 6.26278 48.2756 6.48153C48.6619 6.69744 48.9588 6.98295 49.1662 7.33807C49.3736 7.69318 49.4773 8.0767 49.4773 8.48864C49.4773 8.98011 49.348 9.39915 49.0895 9.74574C48.8338 10.0923 48.4858 10.3324 48.0455 10.4659V10.5341C48.5966 10.625 49.027 10.8594 49.3366 11.2372C49.6463 11.6122 49.8011 12.0767 49.8011 12.6307C49.8011 13.1051 49.6719 13.5312 49.4134 13.9091C49.1577 14.2841 48.8082 14.5795 48.3651 14.7955C47.9219 15.0114 47.4176 15.1193 46.8523 15.1193Z" fill="black"/>
</svg>
