<svg width="138" height="60" viewBox="0 0 138 60" fill="none" xmlns="http://www.w3.org/2000/svg">
<path d="M5 22.8428C5 35 15.0486 41.4785 22.4043 47.2773C25 49.3235 27.5 51.25 30 51.25C32.5 51.25 35 49.3235 37.5957 47.2773C44.9515 41.4785 55 35 55 22.8428C55 10.6854 41.2495 2.06366 30 13.7516C18.7504 2.06366 5 10.6854 5 22.8428Z" fill="white"/>
<circle cx="51" cy="11" r="11" fill="#D9D9D9"/>
<circle cx="127" cy="11" r="11" fill="#D9D9D9"/>
<path d="M48.9716 6.27273V15H47.9148V7.38068H47.8636L45.733 8.79545V7.72159L47.9148 6.27273H48.9716ZM54.3281 15.1193C53.6861 15.1193 53.1392 14.9446 52.6875 14.5952C52.2358 14.2429 51.8906 13.733 51.652 13.0653C51.4134 12.3949 51.294 11.5852 51.294 10.6364C51.294 9.69318 51.4134 8.88778 51.652 8.22017C51.8935 7.54972 52.2401 7.03835 52.6918 6.68608C53.1463 6.33097 53.6918 6.15341 54.3281 6.15341C54.9645 6.15341 55.5085 6.33097 55.9602 6.68608C56.4148 7.03835 56.7614 7.54972 57 8.22017C57.2415 8.88778 57.3622 9.69318 57.3622 10.6364C57.3622 11.5852 57.2429 12.3949 57.0043 13.0653C56.7656 13.733 56.4205 14.2429 55.9688 14.5952C55.517 14.9446 54.9702 15.1193 54.3281 15.1193ZM54.3281 14.1818C54.9645 14.1818 55.4588 13.875 55.8111 13.2614C56.1634 12.6477 56.3395 11.7727 56.3395 10.6364C56.3395 9.88068 56.2585 9.23722 56.0966 8.70597C55.9375 8.17472 55.7074 7.76989 55.4062 7.49148C55.108 7.21307 54.7486 7.07386 54.3281 7.07386C53.6974 7.07386 53.2045 7.38494 52.8494 8.0071C52.4943 8.62642 52.3168 9.50284 52.3168 10.6364C52.3168 11.392 52.3963 12.0341 52.5554 12.5625C52.7145 13.0909 52.9432 13.4929 53.2415 13.7685C53.5426 14.044 53.9048 14.1818 54.3281 14.1818Z" fill="black"/>
</svg>
