<svg width="64" height="64" viewBox="0 0 64 64" fill="none" xmlns="http://www.w3.org/2000/svg">
<path fill-rule="evenodd" clip-rule="evenodd" d="M58.6666 32C58.6666 46.7274 46.7274 58.6666 32 58.6666C17.2724 58.6666 5.33331 46.7274 5.33331 32C5.33331 17.2724 17.2724 5.33331 32 5.33331C46.7274 5.33331 58.6666 17.2724 58.6666 32ZM40 24C40 28.4184 36.4184 32 32 32C27.5816 32 24 28.4184 24 24C24 19.5817 27.5816 16 32 16C36.4184 16 40 19.5817 40 24ZM32 54.6666C36.7573 54.6666 41.1725 53.201 44.8184 50.6965C46.4288 49.5904 47.1168 47.4832 46.1808 45.7685C44.24 42.2141 40.2405 40 31.9997 40C23.7592 40 19.7599 42.2138 17.819 45.7685C16.8828 47.4832 17.5709 49.5901 19.1812 50.6962C22.8271 53.2008 27.2424 54.6666 32 54.6666Z" fill="white"/>
</svg>
